<svg width="64" height="64" viewBox="0 0 64 64" fill="none" xmlns="http://www.w3.org/2000/svg">
<path d="M43.9482 52.1952C44.0185 52.4733 44.0052 52.7659 43.91 53.0365C43.8149 53.3071 43.642 53.5436 43.4131 53.7165C40.1128 56.1526 36.1014 57.433 32 57.3594C27.8984 57.4331 23.8868 56.1528 20.5863 53.7165C20.3575 53.5435 20.1848 53.307 20.0897 53.0364C19.9947 52.7658 19.9815 52.4732 20.0519 52.1952C21.449 46.7379 24.5325 43.513 28.7943 42.4826C24.6938 40.7123 22.8077 35.9488 24.5715 31.8483C26.5639 27.2326 32.3495 25.4227 36.7123 28.4755C38.5811 29.7824 39.8266 31.8854 40.0531 34.1542C40.4243 37.8803 38.3341 41.1315 35.2058 42.4826C39.4682 43.513 42.5517 46.7379 43.9482 52.1952Z" fill="#4F46E5"/>
<path d="M40.1536 26.5606L40.1331 26.5754C39.6243 26.9318 38.9344 26.9357 38.4397 26.56C37.7571 26.0425 37.0147 25.6091 36.2285 25.2691C34.8945 24.6888 33.4548 24.3907 32 24.3936C29.6192 24.3936 27.3728 25.1802 25.5578 26.5568C25.0637 26.9318 24.3744 26.9293 23.8656 26.5747L23.8483 26.5619C23.3479 26.2118 23.0944 25.5802 23.2557 24.9907C24.3155 21.1187 26.5594 18.825 29.6378 18.0851C26.6118 16.7782 25.2218 13.264 26.5223 10.2387C27.9642 6.89984 32.0864 5.552 35.2826 7.6224C36.8864 8.66048 37.9283 10.4621 37.9763 12.3712C38.041 14.9459 36.5491 17.1386 34.3629 18.0851C37.4413 18.825 39.6845 21.1187 40.745 24.9914C40.9056 25.5802 40.6535 26.2106 40.1549 26.5606H40.1536ZM21.136 40.7712C21.209 41.0503 21.1962 41.3449 21.0992 41.6166C21.0023 41.8883 20.8258 42.1245 20.5926 42.2944C17.9121 44.2074 14.6865 45.2057 11.3939 45.1411C8.09985 45.2076 4.87217 44.2099 2.19009 42.2963C1.95639 42.126 1.77959 41.8891 1.68286 41.6166C1.58613 41.3442 1.57398 41.0488 1.64801 40.7693C2.81473 36.416 5.29921 33.8304 8.72833 32.9811C6.31873 31.9187 4.68609 29.4963 4.75649 26.663C4.80577 24.6957 5.79777 22.8147 7.37857 21.6416C8.17672 21.0359 9.10174 20.6189 10.0841 20.422C11.0666 20.2251 12.0808 20.2533 13.0508 20.5046C14.0207 20.7559 14.9211 21.2237 15.6843 21.8729C16.4475 22.5221 17.0537 23.3357 17.4573 24.2528C18.9318 27.6 17.4125 31.5072 14.0653 32.9811C17.4899 33.8298 19.9751 36.3898 21.136 40.7712ZM62.3527 40.7706C62.4261 41.0499 62.4136 41.3448 62.3168 41.6169C62.22 41.889 62.0433 42.1256 61.8099 42.2957C59.1278 44.2096 55.8998 45.2075 52.6055 45.1411C49.3037 45.2058 46.0775 44.2022 43.4074 42.2957C43.1738 42.1256 42.997 41.8889 42.9002 41.6167C42.8034 41.3444 42.791 41.0493 42.8647 40.7699C44.0263 36.4154 46.5107 33.8298 49.9341 32.9811C47.52 31.913 45.8765 29.4682 45.9712 26.6144C46.0359 24.647 47.0381 22.7718 48.6272 21.6096C49.427 21.0129 50.3511 20.6043 51.3307 20.4141C52.3102 20.2239 53.3201 20.2571 54.285 20.5111C55.25 20.7651 56.1453 21.2334 56.9043 21.8813C57.6633 22.5291 58.2664 23.3397 58.6688 24.2528C60.1434 27.6 58.624 31.5072 55.2704 32.9811C58.7008 33.8298 61.1866 36.3898 62.3527 40.7706Z" fill="#4F46E5"/>
</svg>
