<svg width="64" height="64" viewBox="0 0 64 64" fill="none" xmlns="http://www.w3.org/2000/svg">
<path d="M16.8554 10.3692H31.7341C32.4059 10.3692 33.0502 10.1024 33.5252 9.62735C34.0002 9.15233 34.2671 8.50808 34.2671 7.8363V4.99446C34.2671 4.32268 34.0002 3.67842 33.5252 3.20341C33.0502 2.72839 32.4059 2.46153 31.7341 2.46153H16.8541C16.1826 2.46186 15.5386 2.72886 15.0639 3.20384C14.5891 3.67882 14.3224 4.3229 14.3224 4.99446V7.8363C14.3224 9.23569 15.456 10.3692 16.8554 10.3692Z" fill="#4F46E5"/>
<path d="M24.9292 53.9815H19.4708C19.2194 53.9815 18.9784 53.8817 18.8006 53.704C18.6229 53.5262 18.5231 53.2852 18.5231 53.0338C18.5231 52.7825 18.6229 52.5415 18.8006 52.3637C18.9784 52.186 19.2194 52.0862 19.4708 52.0862H24.0578C23.2291 49.9994 22.8047 47.774 22.8074 45.5286C22.8074 45.264 22.8074 44.9994 22.832 44.7335H19.472C19.2206 44.7335 18.9796 44.6337 18.8019 44.456C18.6241 44.2782 18.5243 44.0372 18.5243 43.7858C18.5243 43.5345 18.6241 43.2935 18.8019 43.1157C18.9796 42.938 19.2206 42.8382 19.472 42.8382H23.0092C23.4053 40.1956 24.3941 37.677 25.9015 35.4708H19.4708C19.2194 35.4708 18.9784 35.3709 18.8006 35.1932C18.6229 35.0155 18.5231 34.7744 18.5231 34.5231C18.5231 34.2717 18.6229 34.0307 18.8006 33.853C18.9784 33.6752 19.2194 33.5754 19.4708 33.5754H27.3932C29.0665 31.7018 31.1169 30.2031 33.41 29.1776C35.7031 28.152 38.1871 27.6228 40.6991 27.6246C42.5945 27.6246 44.4271 27.9151 46.1329 28.4714V10.0098C46.1336 9.51185 46.036 9.01862 45.8457 8.55841C45.6554 8.0982 45.3762 7.68005 45.0241 7.32792C44.6719 6.97578 44.2538 6.69658 43.7936 6.50631C43.3334 6.31603 42.8401 6.21843 42.3421 6.21907H36.1637V7.8363C36.1627 9.00916 35.6964 10.1337 34.867 10.963C34.0377 11.7924 32.9132 12.2587 31.7403 12.2597H16.8554C15.6827 12.2584 14.5585 11.7919 13.7294 10.9626C12.9004 10.1333 12.4342 9.00895 12.4332 7.8363V6.21907H6.25476C5.75677 6.21843 5.26354 6.31603 4.80333 6.50631C4.34312 6.69658 3.92497 6.97578 3.57284 7.32792C3.2207 7.68005 2.9415 8.0982 2.75123 8.55841C2.56095 9.01862 2.46334 9.51185 2.46399 10.0098V56.8C2.46464 57.8052 2.86424 58.769 3.575 59.4798C4.28577 60.1905 5.24959 60.5901 6.25476 60.5908H31.0585C28.4822 58.95 26.3714 56.674 24.9292 53.9815ZM16.1981 16.1637H32.3975C32.9145 16.1637 33.3452 16.5945 33.3452 17.1114C33.3452 17.6283 32.9145 18.0591 32.3975 18.0591H16.1969C15.9456 18.0591 15.7045 17.9592 15.5268 17.7815C15.3491 17.6038 15.2492 17.3627 15.2492 17.1114C15.2492 16.86 15.3491 16.619 15.5268 16.4413C15.7045 16.2635 15.9456 16.1637 16.1969 16.1637H16.1981ZM8.31384 24.0862H40.2695C40.5209 24.0862 40.7619 24.186 40.9397 24.3637C41.1174 24.5415 41.2172 24.7825 41.2172 25.0338C41.2172 25.2852 41.1174 25.5262 40.9397 25.704C40.7619 25.8817 40.5209 25.9815 40.2695 25.9815H8.31384C8.06309 25.9796 7.82316 25.8791 7.64585 25.7018C7.46854 25.5245 7.36808 25.2846 7.36615 25.0338C7.36615 24.5169 7.79569 24.0862 8.31384 24.0862ZM14.5169 50.5452L9.90769 55.1569C9.73045 55.3465 9.47692 55.4351 9.23692 55.4351C8.99692 55.4351 8.75692 55.3465 8.56738 55.1569L6.8603 53.4523C6.68442 53.2738 6.58582 53.0333 6.58582 52.7828C6.58582 52.5322 6.68442 52.2917 6.8603 52.1132C7.03882 51.937 7.27959 51.8381 7.53045 51.8381C7.78132 51.8381 8.02209 51.937 8.20061 52.1132L9.23569 53.1495L13.1791 49.2074C13.3575 49.0315 13.598 48.9329 13.8486 48.9329C14.0992 48.9329 14.3397 49.0315 14.5181 49.2074C14.694 49.3859 14.7926 49.6264 14.7926 49.8769C14.7926 50.1275 14.694 50.368 14.5181 50.5465L14.5169 50.5452ZM14.5169 41.296L9.90769 45.9077C9.7263 46.0779 9.48689 46.1726 9.23815 46.1726C8.9894 46.1726 8.75 46.0779 8.56861 45.9077L6.86153 44.1895C6.68565 44.0111 6.58705 43.7706 6.58705 43.52C6.58705 43.2694 6.68565 43.0289 6.86153 42.8505C7.04005 42.6742 7.28082 42.5754 7.53169 42.5754C7.78255 42.5754 8.02332 42.6742 8.20184 42.8505L9.23692 43.8868L13.1803 39.9569C13.2671 39.867 13.3711 39.7955 13.4861 39.7466C13.6012 39.6978 13.7249 39.6726 13.8498 39.6726C13.9748 39.6726 14.0985 39.6978 14.2135 39.7466C14.3286 39.7955 14.4326 39.867 14.5194 39.9569C14.6953 40.1354 14.7939 40.3759 14.7939 40.6265C14.7939 40.877 14.6953 41.1175 14.5194 41.296H14.5169ZM14.5169 32.0345L9.90769 36.6462C9.5483 37.0043 8.97722 37.0277 8.56738 36.6462L6.86153 34.9403C6.68565 34.7618 6.58705 34.5213 6.58705 34.2708C6.58705 34.0202 6.68565 33.7797 6.86153 33.6012C6.94833 33.5111 7.05242 33.4394 7.16757 33.3905C7.28272 33.3415 7.40656 33.3163 7.53169 33.3163C7.65681 33.3163 7.78065 33.3415 7.8958 33.3905C8.01095 33.4394 8.11504 33.5111 8.20184 33.6012L9.23692 34.6375L13.1803 30.6942C13.2671 30.6042 13.3711 30.5327 13.4861 30.4838C13.6012 30.435 13.7249 30.4098 13.8498 30.4098C13.9748 30.4098 14.0985 30.435 14.2135 30.4838C14.3286 30.5327 14.4326 30.6042 14.5194 30.6942C14.6956 30.8727 14.7945 31.1134 14.7945 31.3643C14.7945 31.6152 14.6956 31.8559 14.5194 32.0345H14.5169Z" fill="#4F46E5"/>
<path d="M40.6991 41.3588C40.7495 41.3588 40.8 41.3588 40.8505 41.3711L44.8566 37.3662C43.5703 36.7066 42.1446 36.3648 40.6991 36.3692C35.6578 36.3692 31.5385 40.4751 31.5385 45.5286C31.5385 50.5822 35.6578 54.6905 40.6991 54.6905C45.7661 54.6905 49.872 50.5834 49.872 45.5286C49.8763 44.0874 49.5344 42.6662 48.8751 41.3846L44.8689 45.3895C44.8812 45.44 44.8812 45.4782 44.8812 45.5286C44.8773 46.6355 44.4351 47.6957 43.6512 48.4772C42.8674 49.2587 41.8059 49.6978 40.6991 49.6985C39.5935 49.6975 38.5334 49.2578 37.7516 48.4761C36.9698 47.6943 36.5302 46.6342 36.5292 45.5286C36.5302 44.423 36.9698 43.363 37.7516 42.5812C38.5334 41.7994 39.5935 41.3597 40.6991 41.3588Z" fill="#4F46E5"/>
<path d="M50.2769 39.9815C51.2561 41.666 51.7705 43.5802 51.7674 45.5286C51.7674 51.632 46.8025 56.5858 40.6991 56.5858C34.6092 56.5858 29.6431 51.632 29.6431 45.5286C29.6431 39.4265 34.6092 34.4726 40.6991 34.4726C42.7212 34.4726 44.6166 35.0166 46.2462 35.9766L49.8351 32.3877C47.1565 30.5162 43.9667 29.5149 40.6991 29.52C31.8671 29.52 24.7028 36.6831 24.7028 45.5286C24.7028 54.3741 31.8646 61.5385 40.6991 61.5385C49.5446 61.5385 56.7212 54.3741 56.7212 45.5286C56.7212 42.1428 55.6726 38.9969 53.8535 36.4061L50.2769 39.9815Z" fill="#4F46E5"/>
<path d="M60.5883 29.8154H57.7649L60.5785 27.0006C60.6706 26.9136 60.7444 26.8091 60.7955 26.6931C60.8465 26.5771 60.8738 26.452 60.8757 26.3253C60.8775 26.1986 60.854 26.0728 60.8064 25.9553C60.7588 25.8379 60.6881 25.7312 60.5985 25.6415C60.5089 25.5519 60.4023 25.4811 60.2849 25.4334C60.1675 25.3857 60.0417 25.362 59.915 25.3637C59.7883 25.3655 59.6632 25.3926 59.5471 25.4436C59.4311 25.4945 59.3264 25.5682 59.2394 25.6603L56.4271 28.4714V25.6529C56.4271 25.4016 56.3272 25.1605 56.1495 24.9828C55.9718 24.8051 55.7307 24.7052 55.4794 24.7052C55.228 24.7052 54.987 24.8051 54.8093 24.9828C54.6315 25.1605 54.5317 25.4016 54.5317 25.6529V30.3668L40.0382 44.8615C39.9501 44.9496 39.8802 45.0542 39.8325 45.1693C39.7849 45.2844 39.7603 45.4077 39.7603 45.5323C39.7603 45.6569 39.7849 45.7802 39.8325 45.8953C39.8802 46.0104 39.9501 46.115 40.0382 46.2031C40.1262 46.2912 40.2308 46.361 40.3459 46.4087C40.461 46.4564 40.5844 46.4809 40.7089 46.4809C40.8335 46.4809 40.9569 46.4564 41.0719 46.4087C41.187 46.361 41.2916 46.2912 41.3797 46.2031L55.8695 31.712H60.5883C60.8397 31.712 61.0807 31.6122 61.2584 31.4344C61.4362 31.2567 61.536 31.0157 61.536 30.7643C61.536 30.513 61.4362 30.2719 61.2584 30.0942C61.0807 29.9165 60.8397 29.8154 60.5883 29.8154Z" fill="#4F46E5"/>
</svg>
