<svg width="64" height="64" viewBox="0 0 64 64" fill="none" xmlns="http://www.w3.org/2000/svg">
<g clip-path="url(#clip0_2147_145)">
<path d="M0 60.128H64V63.445H0V60.128Z" fill="#4F46E5"/>
<path d="M2.66663 33.4594H12.5333V57.4748H2.66663V33.4594Z" fill="#4F46E5"/>
<path d="M14.9337 21.916H24.8004V57.4745H14.9337V21.916Z" fill="#4F46E5"/>
<path d="M27.0663 27.3567H36.9327V57.4745H27.0663V27.3567Z" fill="#4F46E5"/>
<path d="M39.3338 38.6337H49.2002V57.3415H39.3338V38.6337Z" fill="#4F46E5"/>
<path d="M51.4664 17.6707H61.3328V57.3415H51.4664V17.6707Z" fill="#4F46E5"/>
<path d="M41.8667 24.3046L23.0666 5.59693L6.66663 21.9164L4.8 20.0589L23.0666 1.88197L41.8667 20.5897L57.3333 5.19887L59.2 7.05635L41.8667 24.3046Z" fill="#4F46E5"/>
<path d="M5.73336 24.3051C7.57435 24.3051 9.06675 22.82 9.06675 20.9881C9.06675 19.1562 7.57435 17.6711 5.73336 17.6711C3.89239 17.6711 2.39999 19.1562 2.39999 20.9881C2.39999 22.82 3.89239 24.3051 5.73336 24.3051Z" fill="#4F46E5"/>
<path d="M23.0663 7.18921C24.9072 7.18921 26.3996 5.70412 26.3996 3.87219C26.3996 2.04023 24.9072 0.555145 23.0663 0.555145C21.2253 0.555145 19.7329 2.04023 19.7329 3.87219C19.7329 5.70412 21.2253 7.18921 23.0663 7.18921Z" fill="#4F46E5"/>
<path d="M41.7337 25.8973C43.5749 25.8973 45.067 24.4122 45.067 22.5803C45.067 20.7483 43.5749 19.2632 41.7337 19.2632C39.8928 19.2632 38.4003 20.7483 38.4003 22.5803C38.4003 24.4122 39.8928 25.8973 41.7337 25.8973Z" fill="#4F46E5"/>
<path d="M58.2662 9.44473C60.1074 9.44473 61.5995 7.95965 61.5995 6.12768C61.5995 4.29574 60.1074 2.81065 58.2662 2.81065C56.4253 2.81065 54.9328 4.29574 54.9328 6.12768C54.9328 7.95965 56.4253 9.44473 58.2662 9.44473Z" fill="#4F46E5"/>
</g>
<defs>
<clipPath id="clip0_2147_145">
<rect width="64" height="64" fill="white"/>
</clipPath>
</defs>
</svg>
